<?xml version="1.0" encoding="UTF-8"?>
<!DOCTYPE svg  PUBLIC '-//W3C//DTD SVG 1.1//EN'  'http://www.w3.org/Graphics/SVG/1.1/DTD/svg11.dtd'>
<svg width="180.54mm" height="125.2mm" clip-rule="evenodd" fill-rule="evenodd" image-rendering="optimizeQuality" shape-rendering="geometricPrecision" text-rendering="geometricPrecision" version="1.1" viewBox="0 0 18054 12520" xml:space="preserve" xmlns="http://www.w3.org/2000/svg">
 <defs>
  <style type="text/css">
   <![CDATA[
    .str0 {stroke:#2B2A29;stroke-width:7.61998}
    .str1 {stroke:#434242;stroke-width:7.61998}
    .fil1 {fill:#434242}
    .fil0 {fill:#FEFEFE}
   ]]>
  </style>
 </defs>
  <ellipse class="fil0 str0" cx="2645" cy="10756" rx="2400" ry="354"/>
  <polygon class="fil1 str0" points="6412 4307 5924 5152 11564 8640 17405 11781 17893 10935 12252 7448"/>
  <path class="fil0 str1" d="m6521 4239c-201 426-333 655-601 1042-55 79-20 190 63 238 84 48 184 15 239-64 269-387 401-616 602-1042 41-87 19-190-64-238s-198-23-239 64z"/>
  <path class="fil0 str0" d="m17727 10708c-201 426-333 655-601 1042-55 79-20 191 63 239 84 48 184 15 239-64 269-387 401-616 602-1042 41-87 19-191-64-239s-198-23-239 64z"/>
  <path class="fil1 str1" d="m4612 13c-67 117-149 226-202 349-53 128-45 279-114 399-70 120-205 189-288 299-81 107-135 233-202 349s-134 233-201 349c-68 116-135 233-202 349s-134 233-201 349-135 232-202 349c-67 116-134 232-201 349-67 116-134 232-202 349-67 116-134 232-201 349l-201 348c-68 117-150 226-202 349-54 128-46 279-115 399s-219 179-288 299l-160 277c-28 51-32 79 16 115 1302 993 1711 1237 3209 1858 90 37 106 15 165-72 50-76 97-154 132-237 54-127 46-279 115-399s204-188 288-299c81-107 134-232 201-349 67-116 135-232 202-349l201-348c67-117 135-233 202-349 67-117 134-233 201-349 67-117 134-233 202-349 67-117 134-233 201-349s134-233 201-349c68-116 135-233 202-349s149-225 201-349c54-127 46-279 115-399s219-179 288-299l202-349c-1597-666-1986-891-3362-1941z"/>
  <path class="fil0 str1" d="m4210 723c-40 69-10 150 53 198 1283 991 1599 1174 3099 1789 74 31 158 16 198-53 40-68 21-167-53-197-1500-616-1816-798-3099-1790-63-48-158-16-198 53z"/>
  <path class="fil0 str1" d="m1793 4910c-40 69-10 150 53 198 1282 991 1599 1174 3099 1789 73 31 158 16 198-53 39-68 20-167-53-197-1500-616-1817-798-3100-1790-63-48-158-16-197 53z"/>
  <ellipse class="fil0 str1" transform="matrix(-.3889 .67359 .87728 .5065 6286.9 994.1)" rx="265" ry="1923"/>
  <path class="fil1 str0" d="m335 10713c1710 305 2900 277 4611 0 98-16 147 88 181 181 87 242 150 449 150 716 0 171-24 606-241 646-1765 329-3026 365-4792 0-215-44-240-475-240-646 0-267 63-474 150-716 34-94 83-198 181-181z"/>
</svg>
